<svg xmlns="http://www.w3.org/2000/svg" xmlns:xlink="http://www.w3.org/1999/xlink" xmlns:fi="http://pattern.flaticon.com/" x="0" y="0" width="2000" height="2000" viewBox="0 0 3500 3500"><rect x="0px" y="0px" width="100%" height="100%" opacity="1" fill="#895269"/><defs><path d="M59.84,7.897c-0.218-0.268-0.556-0.393-0.893-0.353c-0.077,0.004-0.149,0.017-0.224,0.039L0.738,23.354  C0.312,23.47,0.012,23.852,0,24.293c-0.011,0.441,0.269,0.838,0.688,0.976l21.217,6.952l-1.898,15.182  c-0.05,0.4,0.145,0.791,0.494,0.991c0.155,0.089,0.327,0.133,0.498,0.133c0.215,0,0.43-0.069,0.608-0.206l7.765-5.946l6.807,9.725  c0.188,0.269,0.494,0.427,0.819,0.427c0.022,0,0.045-0.001,0.068-0.002c0.35-0.024,0.661-0.229,0.821-0.542l22.063-43  C60.134,8.631,60.09,8.205,59.84,7.897z M52.895,11.241L22.861,30.429L4.484,24.408L52.895,11.241z M22.288,45.281l1.382-11.053  l4.555,6.507L22.288,45.281z M36.868,49.594L24.418,31.808l32.1-20.508L36.868,49.594z" transform="matrix(1.4984017610549927 0 0 1.4984017610549927 217.5 217.5)" id="L1_135"/><g transform="matrix(1.671891121950374 0.44798187595936634 -0.44798187595936634 1.671891121950374 318.1507944587757 295.10979857248344)" id="L1_136"><path d="M51.911,16.242C51.152,7.888,45.239,1.827,37.839,1.827c-4.93,0-9.444,2.653-11.984,6.905   c-2.517-4.307-6.846-6.906-11.697-6.906c-7.399,0-13.313,6.061-14.071,14.415c-0.06,0.369-0.306,2.311,0.442,5.478   c1.078,4.568,3.568,8.723,7.199,12.013l18.115,16.439l18.426-16.438c3.631-3.291,6.121-7.445,7.199-12.014   C52.216,18.553,51.97,16.611,51.911,16.242z M49.521,21.261c-0.984,4.172-3.265,7.973-6.59,10.985L25.855,47.481L9.072,32.25   c-3.331-3.018-5.611-6.818-6.596-10.99c-0.708-2.997-0.417-4.69-0.416-4.701l0.015-0.101C2.725,9.139,7.806,3.826,14.158,3.826   c4.687,0,8.813,2.88,10.771,7.515l0.921,2.183l0.921-2.183c1.927-4.564,6.271-7.514,11.069-7.514   c6.351,0,11.433,5.313,12.096,12.727C49.938,16.57,50.229,18.264,49.521,21.261z"/><path d="M15.999,7.904c-5.514,0-10,4.486-10,10c0,0.553,0.447,1,1,1s1-0.447,1-1c0-4.411,3.589-8,8-8c0.553,0,1-0.447,1-1   S16.551,7.904,15.999,7.904z"/></g><g transform="matrix(0.7142857313156128 0 0 0.7142857313156128 67.5 67.5)" id="L1_137"><path d="M8,41.08V2c0-0.553-0.448-1-1-1S6,1.447,6,2v39.08C2.613,41.568,0,44.481,0,48c0,3.859,3.14,7,7,7s7-3.141,7-7   C14,44.481,11.387,41.568,8,41.08z M7,53c-2.757,0-5-2.243-5-5s2.243-5,5-5s5,2.243,5,5S9.757,53,7,53z"/><path d="M29,20.695V2c0-0.553-0.448-1-1-1s-1,0.447-1,1v18.632c-3.602,0.396-6.414,3.456-6.414,7.161s2.812,6.765,6.414,7.161V54   c0,0.553,0.448,1,1,1s1-0.447,1-1V34.891c3.4-0.577,6-3.536,6-7.098S32.4,21.272,29,20.695z M27.793,33   c-2.871,0-5.207-2.336-5.207-5.207s2.335-5.207,5.207-5.207S33,24.922,33,27.793S30.664,33,27.793,33z"/><path d="M56,8c0-3.859-3.14-7-7-7s-7,3.141-7,7c0,3.519,2.613,6.432,6,6.92V54c0,0.553,0.448,1,1,1s1-0.447,1-1V14.92   C53.387,14.432,56,11.519,56,8z M49,13c-2.757,0-5-2.243-5-5s2.243-5,5-5s5,2.243,5,5S51.757,13,49,13z"/></g><g transform="matrix(0.6666666865348816 0 0 0.6666666865348816 155 330)" id="L1_138"><path d="M36,16c0-3.309-2.691-6-6-6s-6,2.691-6,6v5h-5v19h22V21h-5V16z M26,16c0-2.206,1.794-4,4-4s4,1.794,4,4v5h-8V16z M39,23v15   H21V23h3h12H39z"/><path d="M29,32.858V35c0,0.553,0.448,1,1,1s1-0.447,1-1v-2.142c1.72-0.447,3-1.999,3-3.858c0-2.206-1.794-4-4-4s-4,1.794-4,4   C26,30.859,27.28,32.411,29,32.858z M30,27c1.103,0,2,0.897,2,2s-0.897,2-2,2s-2-0.897-2-2S28.897,27,30,27z"/><path d="M30,0C15.112,0,3,12.112,3,27c0,14.109,10.881,25.719,24.691,26.895l-4.398,4.398c-0.391,0.391-0.391,1.023,0,1.414   C23.488,59.902,23.744,60,24,60s0.512-0.098,0.707-0.293l5.999-5.999c0.093-0.092,0.166-0.203,0.217-0.326   c0.101-0.244,0.101-0.52,0-0.764c-0.051-0.123-0.124-0.233-0.217-0.326l-5.999-5.999c-0.391-0.391-1.023-0.391-1.414,0   s-0.391,1.023,0,1.414l4.164,4.164C14.862,50.593,5,39.927,5,27C5,13.215,16.215,2,30,2s25,11.215,25,25   c0,6.633-2.57,12.881-7.238,17.593c-0.389,0.393-0.386,1.026,0.007,1.415c0.392,0.387,1.025,0.385,1.414-0.007   C54.224,40.911,57,34.163,57,27C57,12.112,44.888,0,30,0z"/></g><path d="M52.104,0.249c-0.216-0.189-0.501-0.275-0.789-0.241l-31,4.011c-0.499,0.065-0.872,0.489-0.872,0.992  v6.017v4.212v26.035C17.706,39.285,14.997,38,11.944,38c-5.247,0-9.5,3.781-9.5,8.444s4.253,8.444,9.5,8.444s9.5-3.781,9.5-8.444  c0-0.332-0.027-0.658-0.069-0.981c0.04-0.108,0.069-0.221,0.069-0.343V16.118l29-3.753v18.909C48.706,29.285,45.997,28,42.944,28  c-5.247,0-9.5,3.781-9.5,8.444s4.253,8.444,9.5,8.444s9.5-3.781,9.5-8.444c0-0.092-0.012-0.181-0.015-0.272  c0.002-0.027,0.015-0.05,0.015-0.077V11.227V7.016V1C52.444,0.712,52.32,0.438,52.104,0.249z" transform="matrix(0.3643783628940582 0 0 0.3643783628940582 252.5 340)" fill="#ea6248" id="L1_139"/><g transform="matrix(0.3333333432674408 0 0 0.3333333432674408 77.5 340)" id="L1_140"><path d="M50,32c2.757,0,5-2.243,5-5s-2.243-5-5-5s-5,2.243-5,5S47.243,32,50,32z M50,24c1.654,0,3,1.346,3,3s-1.346,3-3,3   s-3-1.346-3-3S48.346,24,50,24z"/><path d="M18,9h18c0.553,0,1-0.447,1-1s-0.447-1-1-1H18c-0.553,0-1,0.447-1,1S17.447,9,18,9z"/><path d="M42,12H18c-0.553,0-1,0.447-1,1s0.447,1,1,1h24c0.553,0,1-0.447,1-1S42.553,12,42,12z"/><path d="M42,43H18c-0.553,0-1,0.447-1,1s0.447,1,1,1h24c0.553,0,1-0.447,1-1S42.553,43,42,43z"/><path d="M42,48H18c-0.553,0-1,0.447-1,1s0.447,1,1,1h24c0.553,0,1-0.447,1-1S42.553,48,42,48z"/><path d="M51,17V0H9v17H0v34h6v3h3v6h42v-6h3v-3h6V17H51z M11,2h38v15H11V2z M9,19h42h7v16H2V19H9z M8,52v-2v-1v-4   c0-0.553-0.447-1-1-1s-1,0.447-1,1v4H2V37h7v15H8z M49,58H11v-4V37h38v17V58z M54,49v-4c0-0.553-0.447-1-1-1s-1,0.447-1,1v4v1v2h-1   V37h7v12H54z"/><path d="M6,24h3c0.553,0,1-0.447,1-1s-0.447-1-1-1H6c-0.553,0-1,0.447-1,1S5.447,24,6,24z"/><path d="M6,28h3c0.553,0,1-0.447,1-1s-0.447-1-1-1H6c-0.553,0-1,0.447-1,1S5.447,28,6,28z"/><path d="M6,32h3c0.553,0,1-0.447,1-1s-0.447-1-1-1H6c-0.553,0-1,0.447-1,1S5.447,32,6,32z"/><path d="M13,24h3c0.553,0,1-0.447,1-1s-0.447-1-1-1h-3c-0.553,0-1,0.447-1,1S12.447,24,13,24z"/><path d="M13,28h3c0.553,0,1-0.447,1-1s-0.447-1-1-1h-3c-0.553,0-1,0.447-1,1S12.447,28,13,28z"/><path d="M13,32h3c0.553,0,1-0.447,1-1s-0.447-1-1-1h-3c-0.553,0-1,0.447-1,1S12.447,32,13,32z"/><path d="M20,24h3c0.553,0,1-0.447,1-1s-0.447-1-1-1h-3c-0.553,0-1,0.447-1,1S19.447,24,20,24z"/><path d="M20,28h3c0.553,0,1-0.447,1-1s-0.447-1-1-1h-3c-0.553,0-1,0.447-1,1S19.447,28,20,28z"/><path d="M20,32h3c0.553,0,1-0.447,1-1s-0.447-1-1-1h-3c-0.553,0-1,0.447-1,1S19.447,32,20,32z"/></g><path d="M60.046,11.196c0.004-0.024,0.011-0.048,0.013-0.072c0.007-0.074-0.001-0.149-0.01-0.224  c-0.002-0.019,0.001-0.037-0.002-0.056c-0.018-0.099-0.051-0.196-0.1-0.289c-0.008-0.016-0.019-0.031-0.028-0.047  c-0.002-0.002-0.002-0.005-0.003-0.008c-0.001-0.002-0.004-0.003-0.005-0.006c-0.007-0.011-0.013-0.023-0.02-0.033  c-0.062-0.091-0.137-0.166-0.221-0.23c-0.019-0.014-0.041-0.022-0.061-0.035c-0.074-0.049-0.152-0.089-0.236-0.116  c-0.037-0.012-0.074-0.018-0.112-0.025c-0.073-0.015-0.146-0.022-0.222-0.02c-0.04,0.001-0.078,0.003-0.118,0.009  c-0.026,0.004-0.051,0-0.077,0.006L0.798,22.046c-0.413,0.086-0.729,0.421-0.788,0.839s0.15,0.828,0.523,1.025l16.632,8.773  l2.917,16.187c-0.002,0.012,0.001,0.025,0,0.037c-0.01,0.08-0.011,0.158-0.001,0.237c0.005,0.04,0.01,0.078,0.02,0.117  c0.023,0.095,0.06,0.184,0.11,0.268c0.01,0.016,0.01,0.035,0.021,0.051c0.003,0.005,0.008,0.009,0.012,0.013  c0.013,0.019,0.031,0.034,0.046,0.053c0.047,0.058,0.096,0.111,0.152,0.156c0.009,0.007,0.015,0.018,0.025,0.025  c0.015,0.011,0.032,0.014,0.047,0.024c0.061,0.04,0.124,0.073,0.191,0.099c0.027,0.01,0.052,0.022,0.08,0.03  c0.09,0.026,0.183,0.044,0.277,0.044c0.001,0,0.002,0,0.003,0h0c0,0,0,0,0,0c0.004,0,0.008-0.002,0.012-0.002  c0.017,0.001,0.034,0.002,0.051,0.002c0.277,0,0.527-0.124,0.712-0.315l11.079-7.386l11.6,7.54c0.164,0.106,0.354,0.161,0.545,0.161  c0.105,0,0.212-0.017,0.315-0.051c0.288-0.096,0.518-0.318,0.623-0.604l13.996-37.989c0.013-0.034,0.024-0.069,0.033-0.105  c0.004-0.015,0.005-0.03,0.008-0.044C60.042,11.22,60.044,11.208,60.046,11.196z M48.464,17.579L24.471,35.22  c-0.039,0.029-0.07,0.065-0.104,0.099c-0.013,0.012-0.026,0.022-0.037,0.035c-0.021,0.023-0.04,0.046-0.059,0.071  c-0.018,0.024-0.032,0.049-0.048,0.074c-0.037,0.06-0.068,0.122-0.092,0.188c-0.005,0.013-0.013,0.023-0.017,0.036  c-0.001,0.004-0.005,0.006-0.006,0.01l-2.75,8.937l-2.179-12.091L48.464,17.579z M22.908,46.594l2.726-9.004l4.244,2.759  l1.214,0.789l-4.124,2.749L22.908,46.594z M52.044,13.498L18.071,30.899l-14.14-7.458L52.044,13.498z M44.559,47.504L29.154,37.492  l-2.333-1.517l30.154-22.172L44.559,47.504z" transform="matrix(0.6659784913063049 0 0 0.6659784913063049 242.5 67.5)" id="L1_141"/><g transform="matrix(1.14214200565575 -0.30603602805712093 0.30603602805712093 1.14214200565575 132.4657749665017 150.17643955592922)" id="L1_142"><path d="M51.062,21.561c-11.889-11.889-31.232-11.889-43.121,0L0,29.501l8.138,8.138c5.944,5.944,13.752,8.917,21.561,8.917   s15.616-2.972,21.561-8.917l7.941-7.941L51.062,21.561z M49.845,36.225c-11.109,11.108-29.184,11.108-40.293,0l-6.724-6.724   l6.527-6.527c11.109-11.108,29.184-11.108,40.293,0l6.724,6.724L49.845,36.225z"/><path d="M28.572,21.57c-3.86,0-7,3.14-7,7c0,0.552,0.448,1,1,1s1-0.448,1-1c0-2.757,2.243-5,5-5c0.552,0,1-0.448,1-1   S29.125,21.57,28.572,21.57z"/><path d="M29.572,16.57c-7.168,0-13,5.832-13,13s5.832,13,13,13s13-5.832,13-13S36.741,16.57,29.572,16.57z M29.572,40.57   c-6.065,0-11-4.935-11-11s4.935-11,11-11s11,4.935,11,11S35.638,40.57,29.572,40.57z"/></g><path d="M56.414,11.089L45.299,0H31.295l-5.519,5.501C12.053,4.356,0.988,12.076,0.833,12.187c-0.449,0.32-0.554,0.945-0.232,1.395  C0.796,13.854,1.103,14,1.415,14c0.201,0,0.404-0.061,0.58-0.187c0.139-0.099,9.712-6.776,21.881-6.419L5.999,25.213l0.008,0.008  L0,31.213l25.146,25.201l10.04-10.013c2.062,1.08,4.461,1.611,6.834,1.61c3.501,0,6.935-1.138,9.101-3.304  c7.367-7.368,4.443-15.45,3.443-17.633l1.849-1.845V11.089z M44.473,2l9.941,9.919v12.48L34.876,43.873  c-4.084-2.928-5.327-8.422-3.493-15.626c0.137-0.535-0.187-1.08-0.722-1.216c-0.537-0.143-1.079,0.187-1.216,0.722  C26.856,37.92,30.335,42.934,33.444,45.3l-2.293,2.286L8.836,25.224L26.516,7.59c4.198,0.48,8.631,1.866,13.046,4.667  c-0.039,0.221-0.068,0.446-0.068,0.678c0,2.17,1.765,3.935,3.935,3.935s3.936-1.765,3.936-3.935S45.599,9,43.429,9  c-1.216,0-2.291,0.566-3.013,1.436c-4.089-2.557-8.187-3.982-12.118-4.622L32.121,2H44.473z M41.814,13.8  c0.442,0.332,1.069,0.243,1.399-0.2c0.332-0.441,0.242-1.068-0.2-1.399c-0.309-0.231-0.619-0.435-0.928-0.652  C42.434,11.21,42.907,11,43.429,11c1.067,0,1.936,0.868,1.936,1.936c0,1.066-0.868,1.935-1.936,1.935  c-0.803,0-1.492-0.492-1.785-1.19C41.701,13.722,41.758,13.757,41.814,13.8z M2.828,31.217l4.592-4.58l22.322,22.37l-4.592,4.58  L2.828,31.217z M49.707,43.293c-2.576,2.574-8.37,3.748-13.03,1.621l16.375-16.332C54.047,31.058,55.657,37.342,49.707,43.293z" transform="matrix(0.8863047957420349 0 0 0.8863047957420349 62.5 237.5)" id="L1_143"/></defs><g fi:class="KUsePattern"><pattern id="pattern_L1_135" width="350" height="350" patternUnits="userSpaceOnUse"><use xlink:href="#L1_135" x="-350" y="-350"/><use xlink:href="#L1_135" x="0" y="-350"/><use xlink:href="#L1_135" x="350" y="-350"/><use xlink:href="#L1_135" x="-350" y="0"/><use xlink:href="#L1_135" x="0" y="0"/><use xlink:href="#L1_135" x="350" y="0"/><use xlink:href="#L1_135" x="-350" y="350"/><use xlink:href="#L1_135" x="0" y="350"/><use xlink:href="#L1_135" x="350" y="350"/></pattern><rect x="0" y="0" width="100%" height="100%" fill="url(#pattern_L1_135)"/></g><g fi:class="KUsePattern"><pattern id="pattern_L1_136" width="350" height="350" patternUnits="userSpaceOnUse"><use xlink:href="#L1_136" x="-350" y="-350"/><use xlink:href="#L1_136" x="0" y="-350"/><use xlink:href="#L1_136" x="350" y="-350"/><use xlink:href="#L1_136" x="-350" y="0"/><use xlink:href="#L1_136" x="0" y="0"/><use xlink:href="#L1_136" x="350" y="0"/><use xlink:href="#L1_136" x="-350" y="350"/><use xlink:href="#L1_136" x="0" y="350"/><use xlink:href="#L1_136" x="350" y="350"/></pattern><rect x="0" y="0" width="100%" height="100%" fill="url(#pattern_L1_136)"/></g><g fi:class="KUsePattern"><pattern id="pattern_L1_137" width="350" height="350" patternUnits="userSpaceOnUse"><use xlink:href="#L1_137" x="-350" y="-350"/><use xlink:href="#L1_137" x="0" y="-350"/><use xlink:href="#L1_137" x="350" y="-350"/><use xlink:href="#L1_137" x="-350" y="0"/><use xlink:href="#L1_137" x="0" y="0"/><use xlink:href="#L1_137" x="350" y="0"/><use xlink:href="#L1_137" x="-350" y="350"/><use xlink:href="#L1_137" x="0" y="350"/><use xlink:href="#L1_137" x="350" y="350"/></pattern><rect x="0" y="0" width="100%" height="100%" fill="url(#pattern_L1_137)"/></g><g fi:class="KUsePattern"><pattern id="pattern_L1_138" width="350" height="350" patternUnits="userSpaceOnUse"><use xlink:href="#L1_138" x="-350" y="-350"/><use xlink:href="#L1_138" x="0" y="-350"/><use xlink:href="#L1_138" x="350" y="-350"/><use xlink:href="#L1_138" x="-350" y="0"/><use xlink:href="#L1_138" x="0" y="0"/><use xlink:href="#L1_138" x="350" y="0"/><use xlink:href="#L1_138" x="-350" y="350"/><use xlink:href="#L1_138" x="0" y="350"/><use xlink:href="#L1_138" x="350" y="350"/></pattern><rect x="0" y="0" width="100%" height="100%" fill="url(#pattern_L1_138)"/></g><g fi:class="KUsePattern"><pattern id="pattern_L1_139" width="350" height="350" patternUnits="userSpaceOnUse"><use xlink:href="#L1_139" x="-350" y="-350"/><use xlink:href="#L1_139" x="0" y="-350"/><use xlink:href="#L1_139" x="350" y="-350"/><use xlink:href="#L1_139" x="-350" y="0"/><use xlink:href="#L1_139" x="0" y="0"/><use xlink:href="#L1_139" x="350" y="0"/><use xlink:href="#L1_139" x="-350" y="350"/><use xlink:href="#L1_139" x="0" y="350"/><use xlink:href="#L1_139" x="350" y="350"/></pattern><rect x="0" y="0" width="100%" height="100%" fill="url(#pattern_L1_139)"/></g><g fi:class="KUsePattern"><pattern id="pattern_L1_140" width="350" height="350" patternUnits="userSpaceOnUse"><use xlink:href="#L1_140" x="-350" y="-350"/><use xlink:href="#L1_140" x="0" y="-350"/><use xlink:href="#L1_140" x="350" y="-350"/><use xlink:href="#L1_140" x="-350" y="0"/><use xlink:href="#L1_140" x="0" y="0"/><use xlink:href="#L1_140" x="350" y="0"/><use xlink:href="#L1_140" x="-350" y="350"/><use xlink:href="#L1_140" x="0" y="350"/><use xlink:href="#L1_140" x="350" y="350"/></pattern><rect x="0" y="0" width="100%" height="100%" fill="url(#pattern_L1_140)"/></g><g fi:class="KUsePattern"><pattern id="pattern_L1_141" width="350" height="350" patternUnits="userSpaceOnUse"><use xlink:href="#L1_141" x="-350" y="-350"/><use xlink:href="#L1_141" x="0" y="-350"/><use xlink:href="#L1_141" x="350" y="-350"/><use xlink:href="#L1_141" x="-350" y="0"/><use xlink:href="#L1_141" x="0" y="0"/><use xlink:href="#L1_141" x="350" y="0"/><use xlink:href="#L1_141" x="-350" y="350"/><use xlink:href="#L1_141" x="0" y="350"/><use xlink:href="#L1_141" x="350" y="350"/></pattern><rect x="0" y="0" width="100%" height="100%" fill="url(#pattern_L1_141)"/></g><g fi:class="KUsePattern"><pattern id="pattern_L1_142" width="350" height="350" patternUnits="userSpaceOnUse"><use xlink:href="#L1_142" x="-350" y="-350"/><use xlink:href="#L1_142" x="0" y="-350"/><use xlink:href="#L1_142" x="350" y="-350"/><use xlink:href="#L1_142" x="-350" y="0"/><use xlink:href="#L1_142" x="0" y="0"/><use xlink:href="#L1_142" x="350" y="0"/><use xlink:href="#L1_142" x="-350" y="350"/><use xlink:href="#L1_142" x="0" y="350"/><use xlink:href="#L1_142" x="350" y="350"/></pattern><rect x="0" y="0" width="100%" height="100%" fill="url(#pattern_L1_142)"/></g><g fi:class="KUsePattern"><pattern id="pattern_L1_143" width="350" height="350" patternUnits="userSpaceOnUse"><use xlink:href="#L1_143" x="-350" y="-350"/><use xlink:href="#L1_143" x="0" y="-350"/><use xlink:href="#L1_143" x="350" y="-350"/><use xlink:href="#L1_143" x="-350" y="0"/><use xlink:href="#L1_143" x="0" y="0"/><use xlink:href="#L1_143" x="350" y="0"/><use xlink:href="#L1_143" x="-350" y="350"/><use xlink:href="#L1_143" x="0" y="350"/><use xlink:href="#L1_143" x="350" y="350"/></pattern><rect x="0" y="0" width="100%" height="100%" fill="url(#pattern_L1_143)"/></g></svg>